<svg height="167.6175527797262" width="200" style="width: 200px; height: 167.618px; position: absolute; top: 50%; left: 50%; transform: translate(-50%, -50%) scale(1); z-index: 0; cursor: pointer;"><defs id="SvgjsDefs1001"><linearGradient id="SvgjsLinearGradient1011"><stop id="SvgjsStop1012" stop-color="#8f5e25" offset="0"></stop><stop id="SvgjsStop1013" stop-color="#fbf4a1" offset="0.5"></stop><stop id="SvgjsStop1014" stop-color="#8f5e25" offset="1"></stop></linearGradient><linearGradient id="SvgjsLinearGradient1015"><stop id="SvgjsStop1016" stop-color="#8f5e25" offset="0"></stop><stop id="SvgjsStop1017" stop-color="#fbf4a1" offset="0.5"></stop><stop id="SvgjsStop1018" stop-color="#8f5e25" offset="1"></stop></linearGradient></defs><g id="SvgjsG1007" featurekey="symbolFeature-0" transform="matrix(1.1904761904761905,0,0,1.1904761904761905,40.476190476190474,-9.523809523809524)" fill="url(#SvgjsLinearGradient1011)"><g xmlns="http://www.w3.org/2000/svg" transform="translate(0,-952.36218)"><path d="m 50,960.36219 c -23.19585,0 -42.0000001,18.80415 -42.0000001,42.00001 0,23.1958 18.8041501,42 42.0000001,42 23.19585,0 42,-18.8042 42,-42 0,-23.19585 -18.80415,-42 -42,-42 z m 0,5 c 20.41299,0 37,16.62581 37,37.03121 0,20.4055 -16.58701,36.9688 -37,36.9688 -20.41299,0 -37,-16.5633 -37,-36.9688 0,-20.40539 16.58701,-37.0312 37,-37.0312 z m 0,4.03125 c -18.25103,0 -33,14.75571 -33,32.99996 0,18.2443 14.74897,32.9688 33,32.9688 18.25104,0 33,-14.7245 33,-32.9688 0,-18.24424 -14.74896,-32.99995 -33,-32.99995 z m 14,10.96875 0,7.96875 c 0.007,0.70406 -0.38993,1.39804 -1,1.75 l -13,7.4375 0,19.84376 c -0.0586,1.3508 -0.29443,2.8169 -0.9375,3.875 -0.84252,1.3555 -2.11936,2.5382 -3.6875,3.5 -1.56815,0.9617 -3.19242,1.5277 -4.71875,1.625 -1.52635,0.097 -3.27675,-0.293 -4.1875,-1.9688 -0.91078,-1.6757 -0.37377,-3.5507 0.46875,-4.9062 0.84251,-1.3555 2.11935,-2.5695 3.6875,-3.5313 1.80913,-1.0261 3.56106,-1.5063 5.375,-1.5937 -0.002,-8.6628 0,-17.315 0,-25.96876 0.048,-0.86411 0.50613,-1.30227 0.9999,-1.78125 L 61,978.64344 c 1.31493,-0.76171 3,-0.26282 3,1.71875 z" style="color:;enable-background:accumulate;" fill="url(#SvgjsLinearGradient1011)" stroke="none" marker="none" visibility="visible" display="inline" overflow="visible"></path></g></g><g id="SvgjsG1008" featurekey="nameFeature-0" transform="matrix(1.7012872318829368,0,0,1.7012872318829368,-1.1965633746756998,99.56441344841389)" fill="url(#SvgjsLinearGradient1015)"><path d="M10.918 12.012 c3.9063 0 6.3672 1.2174 7.3828 3.6523 c0.28646 0.59896 0.42969 0.99609 0.42969 1.1914 l-2.4609 0 l0 0.74219 l2.6367 0 l0 -0.039063 c0 -0.13021 -0.058594 -0.36459 -0.17578 -0.70313 l4.5117 0 l0 0.74219 l-4.2773 0 l0 0.058594 c0.22135 1.0417 0.3776 2.168 0.46875 3.3789 c0 0.065098 -1.7122 0.18879 -5.1367 0.37107 l0 -0.039063 c0 -3.1119 -1.0677 -4.668 -3.2031 -4.668 l-0.54688 0 c-1.6016 0 -2.5781 0.67709 -2.9297 2.0313 c-0.28646 1.1458 -0.42969 2.6498 -0.42969 4.5117 l0 3.8086 l-0.039063 0.56641 l-1.7773 0 l0 0.89844 l1.7773 0 l0 6.7773 l7.5391 0 l0 -7.0508 l4.3164 0 l0 7.0508 l-2.4023 0 l0 4.3359 l-5.0195 0 l0 0.37109 l-3.9063 0 l0 -0.37109 l-3.9648 0 l0 -2.168 l2.6367 0 l0 -0.9375 l-3.9453 0 l0 -3.2031 l-1.6992 0 l0 -3.9453 l0.89844 0 c-0.039063 -1.6406 -0.058594 -2.9297 -0.058594 -3.8672 c0 -4.2578 0.20834 -6.94 0.625 -8.0469 c0.3776 -1.276 1.0026 -2.3764 1.875 -3.3008 c1.5495 -1.4323 3.8412 -2.1484 6.875 -2.1484 z M7.5195 33.8867 l0.23438 0 l0 0.97656 l0.56641 0 l0 0.29297 l-0.80078 0 c-0.05209 0 -0.078125 -0.032559 -0.078125 -0.097656 l0 -1.0742 c0 -0.065098 0.026035 -0.097656 0.078125 -0.097656 z M13.398 33.8867 l0.29299 0.000019073 c0.15625 0.13021 0.23438 0.25391 0.23438 0.37109 c0.026035 0 0.13672 -0.12369 0.33203 -0.37109 l0.23438 0 l0 0.097656 c-0.22135 0.28646 -0.33203 0.48828 -0.33203 0.60547 c0.039063 0 0.16275 0.16928 0.37109 0.50781 l0 0.058594 l-0.27344 0 l-0.33203 -0.37109 c-0.11719 0.22135 -0.20834 0.34504 -0.27344 0.37107 l-0.29297 0 c0.065098 -0.13021 0.20832 -0.35156 0.42967 -0.66406 l-0.39063 -0.56641 l0 -0.039063 z M17.266 35.5859 c0.3125 0.078125 0.46875 0.16926 0.46875 0.27342 l0 0.19531 l-0.19531 0 l-0.17578 -0.19531 l-0.19531 0 c-0.065098 0.013027 -0.097656 0.045586 -0.097656 0.097676 l0 0.097656 c0.48178 0.091152 0.72266 0.19531 0.72266 0.3125 l0 0.15625 c0 0.2474 -0.14322 0.37109 -0.42969 0.37109 l-0.19531 0 c-0.16928 0 -0.306 -0.091152 -0.41016 -0.27344 l0 -0.19531 l0.27344 0 c0 0.15625 0.091152 0.23438 0.27344 0.23438 l0.058594 0 c0.039063 0 0.084629 -0.045566 0.13672 -0.13672 c0 -0.039063 -0.22135 -0.14975 -0.66406 -0.33203 l-0.039063 -0.097656 l0 -0.23438 c0 -0.10416 0.15625 -0.19531 0.46875 -0.27344 z M31.42559375 12.050999999999998 c4.0104 0 6.6471 1.3998 7.9102 4.1992 c0.71615 1.3672 1.0742 4.0039 1.0742 7.9102 l0 0.13672 l-2.0703 0 l0 0.9375 l2.0703 0 l0 10.098 l-1.3672 0 l0 3.6328 l-2.7148 0 l0 1.0352 l-9.4922 0 l0 -1.0352 l-1.1523 0 l0 -3.6328 l-2.4414 0 l0 -2.8516 l1.4453 0 l0 -1.5039 l-1.4453 0 l0 1.5039 l-3.457 0 l0 -1.5039 l2.6172 0 c-0.026035 -2.2787 -0.039063 -4.0234 -0.039063 -5.2344 l0 -2.3828 c0 -4.4271 0.74869 -7.3893 2.2461 -8.8867 c1.3672 -1.6146 3.6393 -2.4219 6.8164 -2.4219 z M28.00779375 21.68 l0.058613 -0.000019073 l-0.058594 0.078125 l0 2.5391 l-2.0898 0 l0 0.9375 l2.0898 0 c-0.026035 4.0234 -0.039063 7.0572 -0.039063 9.1016 l0 0.99609 l4.668 0 l0 -1.543 l2.1484 0 l0 -0.058594 c0 -1.901 -0.013027 -4.5508 -0.039063 -7.9492 c0 -0.14322 0.013027 -0.50129 0.039063 -1.0742 c0 -3.6719 -0.21484 -5.9311 -0.64453 -6.7773 c-0.44271 -0.80729 -1.2565 -1.2109 -2.4414 -1.2109 l-0.68359 0 c-1.4193 0 -2.2982 0.625 -2.6367 1.875 c-0.15625 0.61197 -0.27994 1.6406 -0.37109 3.0859 z M40.410593750000004 24.297 l3.3594 0 l0 0.9375 l-3.3594 0 l0 -0.9375 z M52.0117 12.09 c3.099 0 5.1758 0.99611 6.2305 2.9883 c0.72916 1.5104 1.0938 2.9883 1.0938 4.4336 l-0.039063 0 c-2.1225 0.18229 -3.5742 0.27344 -4.3555 0.27344 c0 -1.0287 -0.319 -1.8945 -0.95703 -2.5977 c-0.59896 -0.33854 -1.1523 -0.50781 -1.6602 -0.50781 l-0.78125 0 c-1.3281 0 -2.1354 0.51432 -2.4219 1.543 c-0.065098 0.29947 -0.097656 0.53385 -0.097656 0.70313 l0 0.41016 c0 1.4583 0.76822 2.5131 2.3047 3.1641 c0.13021 0.11719 1.1979 0.60547 3.2031 1.4648 c1.0677 0.49479 2.0572 1.1068 2.9688 1.8359 l0 0.039063 l-4.9023 0 l0 0.54688 l6.4648 0 l0 0.78125 l0.82031 0 l0 8.4766 l-1.6016 0 l0 4.3555 l-12.422 0 l0 -4.3555 l-2.9297 0 l0 -2.9297 l1.6602 0 l0 -1.0156 l-1.6602 0 l0 -0.68359 l5.6836 0 l0 4.6289 l5.8203 0 l0 -6.9727 l-4.3555 0 l0 -2.2852 l-5.4102 0 l0 -0.54688 l2.6172 0 l0 -0.039063 c-2.2916 -1.5234 -3.4375 -3.6783 -3.4375 -6.4648 l0 -0.37109 c0 -2.3307 0.71615 -4.1016 2.1484 -5.3125 c1.3021 -1.0417 3.3072 -1.5625 6.0156 -1.5625 z M59.063 25.84 l1.9727 0 l0 0.54688 l-1.9727 0 l0 -0.54688 z M41.0546 31.699199999999998 l1.875 0 l0 1.0156 l-1.875 0 l0 -1.0156 z M61.757815 12.148 l6.2109 -0.000019073 c0.6901 2.5 2.0963 7.5 4.2188 15 l2.4609 0 c0.065098 0 0.33203 -0.89193 0.80078 -2.6758 c1.0287 -3.5416 2.1875 -7.6498 3.4766 -12.324 l5.7422 0 l0 18.066 l0.3125 0 l0 3.3008 l-1.7383 0 l0 0.60547 l1.7383 0 l0 5.8789 l-4.8828 0 l0 -2.168 l0.60547 0 l0 -6.6797 l-1.0352 0 l0 -3.3398 l-0.60547 0 l-0.039063 0.19531 l-0.52734 0 l0 4.7461 l-1.6992 0 l0 2.207 l-1.4453 0 l0 3.7695 l-3.4375 0 l0 -2.4023 l-2.1094 0 l0 -3.2813 l-1.2695 0 l0 -3.4375 l-0.72266 0 c-0.026035 -0.18229 -0.18229 -0.78125 -0.46875 -1.7969 l4.9414 0 l-0.13672 -0.66406 l-4.9414 0 l0.13672 0.66406 l-0.64453 0 l0 4.3359 l0.3125 0 l0 4.7461 l-1.2109 0 l0 0.83984 l1.2109 0 l0 1.2695 l-4.4141 0 l0 -5.7227 l-0.83984 0 l0 -21.133 z M66.640625 25.176000000000002 l0 0.33203 c0 0.28646 0.019531 0.83334 0.058594 1.6406 l0.46875 0 c-0.3125 -1.25 -0.46875 -1.9076 -0.46875 -1.9727 l-0.058594 0 z M79.668125 25.234 l-0.41016 1.9141 l0.41016 0 c0.039063 -0.79428 0.058594 -1.3737 0.058594 -1.7383 l0 -0.17578 l-0.058594 0 z M65.097625 27.148 l0 0.66406 l1.543 0 l0 -0.66406 l-1.543 0 z M74.726125 27.148 l-0.13672 0.66404 l4.4336 0 c0.11719 -0.33854 0.17578 -0.55988 0.17578 -0.66404 l-4.4727 0 z M79.726125 27.148 l0 0.66406 l3.3789 0 l0 -0.66406 l-3.3789 0 z M72.383125 27.811999999999998 c0.20834 1.0026 0.35156 1.5039 0.42969 1.5039 l0.56641 0 l0 2.5 l0.87891 0 l0 -3.8672 l0.23438 0 l0 -0.13672 l-2.1094 0 z M84.980125 33.5156 l2.832 0 l0 0.60547 l-2.832 0 l0 -0.60547 z M61.328125 39.23826 l4.9805 0 l0 0.42969 l-4.9805 0 l0 -0.42969 z M88.8281625 12.012 l5.2734 -0.000019073 c0.05209 0.013027 0.078125 0.045586 0.078125 0.097676 l0 13.594 c0 0.065098 -0.026035 0.097656 -0.078125 0.097656 l-0.625 0 l0 14.102 c0 0.065098 -0.032559 0.097656 -0.097656 0.097656 l-4.5508 0 c-0.065098 0 -0.097656 -0.032559 -0.097656 -0.097656 l0 -14.434 l-1.4063 0 c-0.065098 0 -0.097656 -0.032559 -0.097656 -0.097656 l0 -0.60547 c0.013027 -0.065098 0.045586 -0.097656 0.097676 -0.097656 l1.4063 0 l0 -12.559 c0.013027 -0.065098 0.045586 -0.097656 0.097676 -0.097656 z M88.7694625 24.668 l0 0.80078 l2.6953 0 l0 -0.80078 l-2.6953 0 z M105.9370625 12.012 c3.9063 0 6.3607 1.224 7.3633 3.6719 c0.29947 0.58594 0.44922 0.97656 0.44922 1.1719 l-2.4609 0 l0 0.74219 l2.6563 0 l0 -0.039063 c0 -0.13021 -0.065098 -0.36459 -0.19531 -0.70313 l4.5117 0 l0 0.74219 l-4.2773 0 l0 0.058594 c0.22135 1.0547 0.3776 2.1811 0.46875 3.3789 c0 0.065098 -1.7122 0.18879 -5.1367 0.37107 l0 -0.039063 c0 -3.099 -1.0612 -4.6484 -3.1836 -4.6484 l-0.58594 0 c-1.5885 0 -2.5586 0.67709 -2.9102 2.0313 c-0.27344 1.1328 -0.41016 2.6367 -0.41016 4.5117 l0 3.8086 l-0.058594 0.56641 l-1.7969 0 l0 0.87891 l1.7969 0 l0 6.7773 l7.5195 0 l0 -7.0508 l4.3359 0 l0 7.0508 l-2.4023 0 l0 4.3359 l-5.0195 0 l0 0.37109 l-3.9063 0 l0 -0.37109 l-3.9648 0 l0 -2.168 l2.6367 0 l0 -0.9375 l-3.9648 0 l0 -3.2031 l-1.6797 0 l0 -3.9648 l0.89844 0 c-0.039063 -1.6146 -0.058594 -2.8971 -0.058594 -3.8477 c0 -4.2578 0.20182 -6.94 0.60547 -8.0469 c0.40365 -1.276 1.0352 -2.3697 1.8945 -3.2813 c1.5365 -1.4453 3.8281 -2.168 6.875 -2.168 z"></path></g></svg>